<svg width="316" height="82" viewBox="0 0 316 82" fill="none" xmlns="http://www.w3.org/2000/svg">
<path fill-rule="evenodd" clip-rule="evenodd" d="M35.158 25.9472C37.1709 25.9472 38.9265 26.3337 40.4246 27.0835C41.9343 27.8448 43.0931 28.9343 43.9123 30.3517C44.7315 31.7692 45.1412 33.4208 45.1412 35.3068C45.1412 37.1928 44.7315 38.8445 43.9123 40.262C43.0931 41.6795 41.9343 42.7688 40.4246 43.5185C38.9265 44.28 37.1709 44.6548 35.158 44.6548H28.7911V52.0348H22.6935V25.9472H35.158ZM34.8654 39.3248C36.1528 39.3248 37.1709 38.9735 37.9317 38.2472C38.6925 37.5325 39.0669 36.5603 39.0669 35.342C39.0669 34.1237 38.6925 33.1515 37.9317 32.4368C37.1709 31.7105 36.1528 31.3592 34.8654 31.3592H28.756V39.3248H34.8654ZM66.8749 33.6317V52.0348H61.8189L61.4445 49.8325C59.8762 51.5545 57.8397 52.4097 55.3351 52.4097C53.6263 52.4097 52.1049 51.9997 50.7823 51.2032C49.4482 50.3948 48.4182 49.2585 47.6692 47.806C46.9202 46.3535 46.5574 44.69 46.5574 42.8275C46.5574 40.9648 46.9202 39.3132 47.6692 37.8605C48.4182 36.408 49.4482 35.2717 50.7823 34.4635C52.1049 33.6552 53.6263 33.2568 55.3351 33.2568C56.5757 33.2568 57.7226 33.4677 58.7643 33.9128C59.806 34.3463 60.6954 34.9672 61.4445 35.7872L61.8189 33.6317H66.8749ZM56.7162 47.4897C58.0035 47.4897 59.0569 47.0563 59.8762 46.2012C60.6954 45.346 61.1051 44.2215 61.1051 42.8275C61.1051 41.4452 60.6954 40.3205 59.8762 39.4655C59.0569 38.5985 58.0035 38.1768 56.7162 38.1768C55.4288 38.1768 54.3754 38.6103 53.5678 39.4772C52.7603 40.344 52.3623 41.4685 52.3623 42.8275C52.3623 44.198 52.7603 45.3108 53.5678 46.1895C54.3754 47.0563 55.4288 47.4897 56.7162 47.4897ZM84.0794 33.6317H90.4111L78.9415 60.0123H72.7268L76.2965 51.7772L69.1455 33.6317H75.4421L77.5605 39.442L79.5735 45.4397L81.7269 39.442L84.0794 33.6317ZM103.145 33.2217C103.987 33.2217 104.83 33.374 105.673 33.6785C106.515 33.9948 107.253 34.4517 107.873 35.0492L105.415 39.3248C104.889 39.0085 104.409 38.7743 103.964 38.622C103.508 38.4697 103.039 38.3995 102.548 38.3995C101.307 38.3995 100.324 38.7977 99.5985 39.5943C98.8846 40.3908 98.5218 41.5505 98.5218 43.0968V52.0348H92.6817V33.6317H97.7728L98.2292 35.9395C99.4112 34.1237 101.05 33.2217 103.145 33.2217ZM118.406 52.4448C116.37 52.4448 114.591 52.0465 113.058 51.2383C111.536 50.43 110.366 49.3055 109.547 47.8645C108.727 46.4237 108.318 44.7485 108.318 42.8275C108.318 40.918 108.727 39.2428 109.547 37.802C110.366 36.3612 111.536 35.2365 113.058 34.4283C114.591 33.62 116.37 33.2217 118.406 33.2217C120.443 33.2217 122.222 33.62 123.767 34.4283C125.3 35.2365 126.482 36.3612 127.301 37.802C128.121 39.2428 128.53 40.918 128.53 42.8275C128.53 44.7485 128.121 46.4237 127.301 47.8645C126.482 49.3055 125.3 50.43 123.767 51.2383C122.222 52.0465 120.443 52.4448 118.406 52.4448ZM118.406 47.4897C119.694 47.4897 120.735 47.0563 121.531 46.1895C122.327 45.3108 122.725 44.198 122.725 42.8275C122.725 41.4685 122.327 40.344 121.531 39.4772C120.735 38.6103 119.694 38.1768 118.406 38.1768C117.142 38.1768 116.112 38.6103 115.317 39.4772C114.521 40.344 114.123 41.4685 114.123 42.8275C114.123 44.198 114.521 45.3108 115.317 46.1895C116.112 47.0563 117.142 47.4897 118.406 47.4897ZM131.878 25.9472H137.729V52.0348H131.878V25.9472ZM142.118 25.9472H147.958V52.0348H142.118V25.9472Z" fill="white"/>
<path fill-rule="evenodd" clip-rule="evenodd" d="M218.555 44.4205C218.555 46.5292 217.794 48.3097 216.285 49.7505C214.774 51.1915 212.738 52.1052 210.175 52.5035V56.088H205.119V52.5503C203.434 52.3512 201.831 51.9412 200.309 51.332C198.799 50.7228 197.465 49.9497 196.294 49.0008L199.454 44.5728C201.772 46.3885 204.463 47.2905 207.542 47.2905C209.075 47.2905 210.304 47.0328 211.205 46.5057C212.106 45.9903 212.562 45.2757 212.562 44.3855C212.562 43.542 212.142 42.886 211.298 42.4057C210.456 41.9372 209.11 41.5975 207.272 41.3983C203.727 41.0117 201.128 40.18 199.478 38.9032C197.827 37.638 196.996 35.8223 196.996 33.4677C196.996 31.4763 197.699 29.7895 199.091 28.3955C200.472 27.0132 202.346 26.0995 204.71 25.6777V21.9877H209.766V25.5255C211.24 25.7012 212.633 26.0292 213.956 26.5212C215.289 27.0015 216.484 27.634 217.549 28.3955L214.681 32.6828C212.644 31.2655 210.409 30.5625 207.952 30.5625C206.43 30.5625 205.225 30.8085 204.311 31.3005C203.411 31.8043 202.954 32.472 202.954 33.3155C202.954 34.1355 203.352 34.768 204.136 35.2132C204.909 35.67 206.219 35.998 208.056 36.2205C211.579 36.6188 214.213 37.4975 215.945 38.8563C217.689 40.2035 218.555 42.066 218.555 44.4205ZM241.119 33.6903V52.0935H236.052L235.678 49.9028C234.121 51.6132 232.085 52.4683 229.58 52.4683C227.86 52.4683 226.338 52.07 225.016 51.2617C223.693 50.4535 222.651 49.3172 221.902 47.8645C221.165 46.412 220.791 44.7603 220.791 42.8977C220.791 41.0352 221.165 39.3717 221.902 37.9192C222.651 36.4665 223.693 35.342 225.016 34.5337C226.338 33.7255 227.86 33.3155 229.58 33.3155C230.821 33.3155 231.955 33.538 232.998 33.9715C234.039 34.4048 234.94 35.0375 235.678 35.8575L236.052 33.6903H241.119ZM230.949 47.5483C232.249 47.5483 233.301 47.1265 234.121 46.2715C234.94 45.4045 235.35 44.28 235.35 42.8977C235.35 41.5037 234.94 40.3792 234.121 39.524C233.301 38.6688 232.249 38.2355 230.949 38.2355C229.662 38.2355 228.62 38.6688 227.812 39.5357C227.005 40.4143 226.596 41.5272 226.596 42.8977C226.596 44.2565 227.005 45.3812 227.812 46.248C228.62 47.1148 229.662 47.5483 230.949 47.5483ZM245.508 26.0175H251.361V52.0935H245.508V26.0175ZM264.609 33.2803C266.622 33.2803 268.354 33.6552 269.817 34.4165C271.28 35.178 272.403 36.244 273.188 37.6263C273.972 38.9968 274.358 40.6135 274.358 42.4525C274.358 43.0383 274.299 43.7763 274.171 44.6432H260.665C260.841 45.592 261.343 46.3535 262.187 46.9392C263.029 47.5248 264.118 47.8177 265.429 47.8177C266.341 47.8177 267.243 47.6772 268.109 47.4077C268.974 47.1265 269.723 46.74 270.344 46.248L273.398 49.528C272.357 50.5003 271.117 51.2383 269.689 51.7655C268.26 52.2808 266.739 52.5503 265.135 52.5503C262.994 52.5503 261.144 52.152 259.588 51.3672C258.02 50.594 256.815 49.4812 255.971 48.0403C255.129 46.5995 254.707 44.8892 254.707 42.9328C254.707 41.0468 255.118 39.3717 255.949 37.8957C256.779 36.4315 257.949 35.2952 259.436 34.4868C260.923 33.6785 262.643 33.2803 264.609 33.2803ZM264.797 37.8957C263.626 37.8957 262.678 38.2003 261.953 38.7977C261.215 39.3952 260.793 40.2268 260.7 41.2928H268.81C268.741 40.2268 268.354 39.3952 267.641 38.7977C266.938 38.2003 265.99 37.8957 264.797 37.8957ZM284.751 52.5855C281.498 52.5855 278.665 51.7655 276.266 50.1255L278.489 46.0957C279.391 46.6463 280.42 47.068 281.603 47.3608C282.785 47.6655 283.955 47.8177 285.125 47.8177C286.74 47.8177 287.536 47.3725 287.536 46.5057C287.536 46.0605 287.314 45.7208 286.87 45.4983C286.424 45.2757 285.675 45.1352 284.634 45.0532C282.305 44.936 280.444 44.3503 279.075 43.3077C277.694 42.2652 277.003 40.8945 277.003 39.2077C277.003 37.3685 277.753 35.9043 279.238 34.8265C280.725 33.7488 282.738 33.21 285.266 33.21C286.705 33.21 288.086 33.3857 289.386 33.7255C290.685 34.0768 291.809 34.5572 292.757 35.178L290.486 39.0905C289.093 38.294 287.443 37.8957 285.535 37.8957C283.651 37.8957 282.703 38.3525 282.703 39.2428C282.703 39.6177 282.89 39.8988 283.277 40.098C283.662 40.2972 284.318 40.4495 285.231 40.5432C287.865 40.7423 289.865 41.3397 291.246 42.3355C292.627 43.3312 293.306 44.7252 293.306 46.5057C293.306 48.3917 292.558 49.8795 291.036 50.9572C289.526 52.0465 287.431 52.5855 284.751 52.5855Z" fill="#9CDE35"/>
<path fill-rule="evenodd" clip-rule="evenodd" d="M182.624 53.0892L179.313 50.0668C177.031 52.1285 174.187 53.1595 170.781 53.1595C168.919 53.1595 167.316 52.8665 165.958 52.2808C164.612 51.6952 163.571 50.8868 162.857 49.8443C162.132 48.8017 161.768 47.6185 161.768 46.3065C161.768 43.4015 163.547 40.9297 167.094 38.8915C166.029 37.8255 165.268 36.8415 164.824 35.9395C164.378 35.0492 164.156 34.0652 164.156 32.9992C164.156 31.7105 164.495 30.5392 165.186 29.4848C165.865 28.4188 166.824 27.5872 168.065 26.978C169.306 26.3688 170.733 26.0643 172.349 26.0643C173.765 26.0643 175.017 26.3455 176.129 26.9077C177.229 27.47 178.096 28.2432 178.715 29.2388C179.336 30.2345 179.64 31.3357 179.64 32.554C179.64 33.866 179.219 35.1428 178.376 36.3495C177.534 37.5677 176.293 38.6923 174.655 39.7115L178.598 43.2843C179.148 42.2183 179.581 40.8828 179.91 39.3015L184.486 40.5665C184.087 42.9212 183.373 44.9477 182.367 46.6345L185.563 49.5397L182.624 53.0892ZM172.045 30.504C171.179 30.504 170.499 30.7383 170.02 31.1952C169.54 31.652 169.294 32.2143 169.294 32.8937C169.294 33.5145 169.447 34.112 169.739 34.6743C170.043 35.2483 170.605 35.9512 171.46 36.8063C172.571 36.0565 173.367 35.3772 173.835 34.7563C174.304 34.1355 174.549 33.4795 174.549 32.8117C174.549 32.144 174.315 31.5935 173.871 31.16C173.426 30.7265 172.817 30.504 172.045 30.504ZM171.085 48.4972C172.945 48.4972 174.514 47.97 175.813 46.904L170.336 41.902C168.404 42.8977 167.433 44.1512 167.433 45.674C167.433 46.494 167.761 47.1617 168.417 47.7005C169.072 48.2395 169.961 48.4972 171.085 48.4972Z" fill="white"/>
</svg>
